<?xml version="1.0" encoding="UTF-8" standalone="no"?>
<svg
   xmlns:dc="http://purl.org/dc/elements/1.1/"
   xmlns:cc="http://creativecommons.org/ns#"
   xmlns:rdf="http://www.w3.org/1999/02/22-rdf-syntax-ns#"
   xmlns:svg="http://www.w3.org/2000/svg"
   xmlns="http://www.w3.org/2000/svg"
   viewBox="0 0 340.63751 113.3875"
   height="113.3875"
   width="340.63751"
   xml:space="preserve"
   version="1.1"
   id="svg2"><metadata
     id="metadata8"><rdf:RDF><cc:Work
         rdf:about=""><dc:format>image/svg+xml</dc:format><dc:type
           rdf:resource="http://purl.org/dc/dcmitype/StillImage" /><dc:title></dc:title></cc:Work></rdf:RDF></metadata><defs
     id="defs6" /><g
     transform="matrix(1.25,0,0,-1.25,0,113.3875)"
     id="g10"><g
       transform="scale(0.1,0.1)"
       id="g12"><path
         id="path14"
         style="fill:#88b5e4;fill-opacity:1;fill-rule:nonzero;stroke:none"
         d="m 2020.34,412.035 20.52,0 c 19.61,0 30.18,-9.961 30.18,-29.879 0,-23.23 -11.78,-32.281 -32.6,-32.281 l -18.1,0 0,62.16 z m -43.45,-183.469 43.45,0 0,91.129 23.23,0 c 17.5,0 25.05,-10.261 25.66,-27.16 l 1.2,-41.34 c 0.3,-8.441 1.21,-16.59 5.43,-22.629 l 47.07,0 0,1.809 c -8.14,4.23 -9.35,15.988 -9.65,38.621 -0.6,45.57 -5.13,61.867 -34.7,65.789 l 0,0.602 c 24.44,5.129 35.91,24.437 35.91,53.109 0,36.82 -21.73,55.527 -57.34,55.527 l -80.26,0 0,-215.457" /><path
         id="path16"
         style="fill:#88b5e4;fill-opacity:1;fill-rule:nonzero;stroke:none"
         d="m 1336.25,444.02 0,-150.27 c 0,-57.641 33.49,-69.41 68.8,-69.41 35.3,0 68.8,14.48 68.8,69.41 l 0,150.27 -43.45,0 0,-150.27 c 0,-21.43 -5.13,-37.422 -25.35,-37.422 -20.22,0 -25.35,15.992 -25.35,37.422 l 0,150.27 -43.45,0" /><path
         id="path18"
         style="fill:#88b5e4;fill-opacity:1;fill-rule:nonzero;stroke:none"
         d="m 1484.49,444.02 0,-215.45 39.83,0 0,150.871 0.6,0 53.11,-150.871 49.49,0 0,215.45 -39.83,0 0,-147.559 -0.6,0 -52.51,147.559 -50.09,0" /><path
         id="path20"
         style="fill:#88b5e4;fill-opacity:1;fill-rule:nonzero;stroke:none"
         d="m 1638.69,228.57 43.4492,0 0,215.449 -43.4492,0 0,-215.449 z" /><path
         id="path22"
         style="fill:#88b5e4;fill-opacity:1;fill-rule:nonzero;stroke:none"
         d="m 1685.13,444.02 49.48,-215.45 55.83,0 49.48,215.45 -44.96,0 -31.98,-159.329 -0.9,0 -30.48,159.329 -46.47,0" /><path
         id="path24"
         style="fill:#88b5e4;fill-opacity:1;fill-rule:nonzero;stroke:none"
         d="m 1843.79,444.02 0,-215.45 123.42,0 0,35.602 -79.97,0 0,57.937 72.43,0 0,35.61 -72.43,0 0,50.691 76.95,0 0,35.61 -120.4,0" /><path
         id="path26"
         style="fill:#88b5e4;fill-opacity:1;fill-rule:nonzero;stroke:none"
         d="m 2118.09,295.859 0,-8.75 c 0,-39.839 19.31,-62.769 68.5,-62.769 47.07,0 74.83,20.519 74.83,66.09 0,26.25 -8.45,42.84 -41.04,57.027 l -33.49,14.481 c -18.41,7.851 -22.33,15.992 -22.33,29.269 0,12.672 5.13,25.051 24.74,25.051 16.59,0 23.54,-11.77 23.54,-31.988 l 41.64,0 0,6.039 c 0,41.339 -28.07,57.929 -66.69,57.929 -41.04,0 -66.68,-21.422 -66.68,-63.359 0,-35.91 17.8,-51.91 56.42,-65.18 28.67,-9.961 38.63,-17.203 38.63,-36.82 0,-18.102 -12.68,-26.551 -25.95,-26.551 -22.94,0 -28.67,12.969 -28.67,33.192 l 0,6.339 -43.45,0" /><path
         id="path28"
         style="fill:#88b5e4;fill-opacity:1;fill-rule:nonzero;stroke:none"
         d="m 2267.1,228.57 43.4492,0 0,215.449 -43.4492,0 0,-215.449 z" /><path
         id="path30"
         style="fill:#88b5e4;fill-opacity:1;fill-rule:nonzero;stroke:none"
         d="m 2536.25,444.02 -30.18,-83.282 -0.6,0 -28.36,83.282 -160.86,0 0,-35.61 47.07,0 0,-179.84 43.46,0 0,179.84 36.65,0 40.61,-95.051 0,-84.789 43.46,0 0,84.789 55.83,130.661 -47.08,0" /><path
         id="path32"
         style="fill:#2f56ae;fill-opacity:1;fill-rule:nonzero;stroke:none"
         d="m 954.543,463.617 -72.004,0 0,216.41 118.071,0 c 32.02,0.008 59.63,-20.722 68.64,-48.203 8.34,-25.457 1.21,-53.117 -17.61,-72.808 2.5,-6.782 4.94,-12.09 7.26,-18.18 5.23,-12.051 10.01,-24.102 15.24,-36 l 17.13,-41.219 -73.01,0 c 0,-0.043 -0.58,1.738 -1.16,2.469 -2.9,6.379 -5.52,13.211 -8.42,19.59 l -17.559,41.66 c -6.969,16.84 -13.941,32.75 -20.898,49.582 8.687,0.238 15.187,-1.391 23.578,2.469 5.898,2.898 14.839,10.109 15.069,23.937 -0.23,6.852 -2.13,12.043 -6.66,17.442 -4.55,5.019 -11.128,8.742 -19.698,8.859 0,0 -27.981,0.012 -27.969,0 l 0,-166.008" /><path
         id="path34"
         style="fill:#2f56ae;fill-opacity:1;fill-rule:nonzero;stroke:none"
         d="m 1706.6,680.027 0,-216.41 -72,0 0,88.242 -50.41,0 0,-88.242 c -13.06,0 -27.14,0.141 -40.2,0 l -31.8,0 0,166.332 -50.36,0 0,-166.332 -72,0 0,166.332 -50.79,0 0,-166.332 -74.17,0 c -12.92,31.203 -26.56,62.703 -39.19,93.762 -1.45,6.531 -2.9,13.07 -4.79,19.449 l 0,-113.211 -74.32,0 c -14.73,34.25 -28.88,67.821 -43.57,102.582 -5.09,12.039 -9.26,21.84 -14.52,34.36 l -0.72,1.64 -11.44,26.852 -16.38,38.347 c -1.44,4.352 -3.76,8.282 -5.22,12.629 l 74.15,0 c 15.24,-37.007 30.62,-73.589 46.59,-110.019 l 0.44,-0.867 c -0.58,4.207 -1.9,9.578 -2.62,13.636 l 0,64.59 c 0.14,10.313 0,22.071 0,32.66 l 74.31,0 c 0.94,-2.359 1.46,-3.629 2.18,-5.519 8.71,-20.457 16.99,-40.778 25.7,-61.098 l 19.45,-44.269 c -0.44,4.648 -1.46,9.136 -2.04,13.636 l 0,97.25 291.31,0 0,-78.089 50.41,0 0,78.089 72,0" /><path
         id="path36"
         style="fill:#88b5e4;fill-opacity:1;fill-rule:nonzero;stroke:none"
         d="m 1963.64,680.051 -53.96,0 -45.16,-170.59 -45.16,170.59 -53.96,0 -57.29,-216.434 45.47,0 10,45.774 57.61,0 9.99,-45.774 66.68,0 10,45.774 57.6,0 10,-45.774 45.47,0 -57.29,216.434 z m -192.47,-134.891 20.91,97.301 0.6,0 20.92,-97.301 -42.43,0 z m 144.27,0 20.92,97.301 0.6,0 20.92,-97.301 -42.44,0" /><path
         id="path38"
         style="fill:#88b5e4;fill-opacity:1;fill-rule:nonzero;stroke:none"
         d="m 2150.93,606.199 c 0,31.379 -4.52,76.949 -66.69,76.949 -65.17,0 -73.33,-46.468 -73.33,-111.949 0,-65.48 8.16,-111.949 73.33,-111.949 57.03,0 68.5,40.129 68.5,86.602 l -43.45,0 c 0,-46.473 -11.47,-54.622 -27.16,-54.622 -18.71,0 -27.76,11.77 -27.76,76.95 0,60.949 5.13,82.98 27.16,82.98 19.61,0 25.95,-13.582 25.95,-44.961 l 43.45,0" /><path
         id="path40"
         style="fill:#88b5e4;fill-opacity:1;fill-rule:nonzero;stroke:none"
         d="m 2161.32,463.617 43.64,0 0,96.078 50.92,0 0,-96.078 43.65,0 0,216.41 -43.65,0 0,-82.75 -50.92,0 0,82.75 -43.64,0 0,-216.41" /><path
         id="path42"
         style="fill:#88b5e4;fill-opacity:1;fill-rule:nonzero;stroke:none"
         d="m 2308.99,680.066 0,-216.449 124,0 0,35.77 -80.34,0 0,58.211 72.76,0 0,35.769 -72.76,0 0,50.93 77.3,0 0,35.769 -120.96,0" /><path
         id="path44"
         style="fill:#88b5e4;fill-opacity:1;fill-rule:nonzero;stroke:none"
         d="m 2439.47,680.027 0,-216.41 40.01,0 0,151.547 0.6,0 53.35,-151.547 49.71,0 0,216.41 -40.01,0 0,-148.211 -0.61,0 -52.74,148.211 -50.31,0" /><path
         id="path46"
         style="fill:#2f56ae;fill-opacity:1;fill-rule:nonzero;stroke:none"
         d="m 735.801,226.77 10,0 0,453.551 -10,0 0,-453.551 z" /><path
         id="path48"
         style="fill:#595d65;fill-opacity:1;fill-rule:nonzero;stroke:none"
         d="m 142.16,487.48 50.2305,0 0,192.828 -50.2305,0 0,-192.828 z" /><path
         id="path50"
         style="fill:#595d65;fill-opacity:1;fill-rule:nonzero;stroke:none"
         d="m 548.828,226.77 50.2305,0 0,193.582 -50.2305,0 0,-193.582 z" /><path
         id="path52"
         style="fill:#595d65;fill-opacity:1;fill-rule:nonzero;stroke:none"
         d="m 322.457,348.215 c -6.66,5.308 -14.23,9.656 -22.699,13.047 -8.461,3.383 -16.992,6.32 -25.57,8.801 -8.813,2.492 -17.34,4.691 -25.583,6.609 -8.23,1.922 -15.628,4.121 -22.191,6.601 -6.547,2.489 -9.457,4.481 -13.406,7.872 -3.953,3.386 -5.934,7.789 -5.934,13.207 0,4.519 1.133,8.363 3.391,11.519 2.262,3.16 5.203,5.703 8.812,7.621 3.61,1.922 7.739,3.332 12.36,4.231 1.64,0.32 4.527,0.55 6.179,0.761 l 96.961,0 c -0.851,9.989 -1.519,19.59 -2.031,28.528 -0.422,7.23 -0.98,14.429 -1.601,21.601 l -94.137,0 0,-0.082 c -9.82,-0.508 -19.442,-1.769 -28.883,-3.789 -12.641,-2.719 -23.879,-7.168 -33.699,-13.39 -9.828,-6.2 -17.731,-14.5 -23.711,-24.887 -5.981,-10.391 -8.981,-23.262 -8.981,-38.621 0,-10.84 2.032,-20.153 6.102,-27.949 4.059,-7.793 9.371,-14.34 15.922,-19.641 6.547,-5.313 14,-9.711 22.359,-13.223 8.348,-3.488 16.938,-6.488 25.738,-8.968 8.813,-2.481 17.391,-4.629 25.743,-6.442 8.359,-1.797 15.867,-3.828 22.527,-6.098 6.66,-2.25 9.793,-3.5 13.742,-6.441 3.949,-2.93 5.93,-6.777 5.93,-11.508 0,-4.07 -0.961,-7.402 -2.879,-10 -1.91,-2.59 -4.352,-4.691 -7.281,-6.261 -2.942,-1.59 -6.211,-2.711 -9.832,-3.391 -3.61,-0.68 -7.117,-1.02 -10.5,-1.02 l -107.571,0 0,-50.129 107.571,0 0,0.09 c 10.371,0.211 20.91,1.5 31.66,3.981 11.73,2.711 22.351,7 31.832,12.871 9.488,5.867 17.23,13.5 23.199,22.859 5.988,9.379 8.981,20.61 8.981,33.707 0,11.071 -2.082,20.492 -6.262,28.282 -4.18,7.8 -9.59,14.351 -16.258,19.652" /><path
         id="path54"
         style="fill:#595d65;fill-opacity:1;fill-rule:nonzero;stroke:none"
         d="m 471.172,625.785 c 2.93,1.582 6.211,2.711 9.82,3.379 3.61,0.684 7.121,1.024 10.5,1.024 l 107.578,0 0,50.128 -107.578,0 0,-0.089 c -10.359,-0.211 -20.91,-1.5 -31.648,-3.981 -11.742,-2.711 -22.352,-7 -31.84,-12.871 -9.492,-5.867 -17.231,-13.488 -23.203,-22.859 -5.988,-9.379 -8.981,-20.61 -8.981,-33.711 0,-11.059 2.082,-20.489 6.262,-28.278 4.18,-7.8 9.602,-14.351 16.27,-19.652 6.652,-5.309 14.23,-9.648 22.691,-13.039 8.469,-3.391 16.988,-6.32 25.578,-8.809 8.813,-2.492 17.332,-4.691 25.57,-6.613 8.243,-1.918 15.641,-4.117 22.192,-6.598 6.551,-2.492 9.469,-4.48 13.418,-7.871 3.953,-3.39 5.929,-7.789 5.929,-13.211 0,-4.519 -1.128,-8.359 -3.386,-11.519 -2.274,-3.16 -5.203,-5.699 -8.813,-7.617 -3.621,-1.922 -7.738,-3.332 -12.359,-4.231 -1.641,-0.32 -4.539,-0.551 -6.192,-0.762 l -94.117,0 c 0.489,-6.5 0.91,-12.82 1.258,-18.82 0.602,-10.48 1.442,-20.961 2.461,-31.301 l 91.039,0 0,0.09 c 0.012,0 0.02,-0.039 0.031,-0.027 9.86,0.508 19.532,1.777 29.02,3.808 12.648,2.711 23.891,7.172 33.711,13.379 9.82,6.211 17.73,14.512 23.711,24.903 5.976,10.379 8.976,23.258 8.976,38.609 0,10.852 -2.039,20.16 -6.097,27.949 -4.063,7.789 -9.379,14.34 -15.922,19.641 -6.547,5.309 -14.008,9.719 -22.36,13.219 -8.347,3.492 -16.937,6.492 -25.738,8.98 -8.82,2.481 -17.39,4.621 -25.75,6.43 -8.351,1.801 -15.871,3.84 -22.519,6.101 -6.672,2.258 -9.793,3.508 -13.75,6.442 -3.942,2.937 -5.922,6.777 -5.922,11.519 0,4.071 0.961,7.387 2.871,10 1.918,2.59 4.359,4.68 7.289,6.258" /><path
         id="path56"
         style="fill:#2f56ae;fill-opacity:1;fill-rule:nonzero;stroke:none"
         d="m 522.676,420.621 -32.551,0 -16.609,-0.121 c 1.32,-45.219 -6.489,-118.809 -27.301,-140.051 -0.328,-0.328 -0.61,-0.527 -0.91,-0.808 -1.481,-1.282 -3.34,-2.129 -5.438,-2.129 -2.09,0 -3.929,0.828 -5.371,2.117 -16.012,18.859 -33.262,97.351 -37.781,176.07 -4.82,83.891 -22.938,224.621 -90.141,224.621 -16.629,0 -31.918,-6.629 -44.199,-19.179 -42.187,-43.071 -41.449,-154.551 -41,-173.661 l 49.449,0 c -1.289,45.219 6.242,118.321 27.031,139.54 0.211,0.218 0.403,0.32 0.61,0.519 1.5,1.383 3.453,2.262 5.652,2.262 2.668,0 4.949,-1.332 6.488,-3.281 0.02,0.019 0.032,0.058 0.051,0.082 15.621,-20.571 32.27,-97.172 36.699,-173.68 4.821,-84.332 22.93,-225.781 90.129,-225.781 16.641,0 31.922,6.621 44.211,19.168 42.743,43.652 41.422,157.441 40.981,174.312" /></g></g></svg>